<?xml version="1.0" encoding="UTF-8" standalone="no"?>
<svg
   xmlns:dc="http://purl.org/dc/elements/1.1/"
   xmlns:cc="http://creativecommons.org/ns#"
   xmlns:rdf="http://www.w3.org/1999/02/22-rdf-syntax-ns#"
   xmlns:svg="http://www.w3.org/2000/svg"
   xmlns="http://www.w3.org/2000/svg"
   id="svg4721"
   version="1.1"
   viewBox="0 0 113.39256 69.547699"
   height="69.547699mm"
   width="113.39256mm">
  <defs
     id="defs4715" />
  <metadata
     id="metadata4718">
    <rdf:RDF>
      <cc:Work
         rdf:about="">
        <dc:format>image/svg+xml</dc:format>
        <dc:type
           rdf:resource="http://purl.org/dc/dcmitype/StillImage" />
        <dc:title></dc:title>
      </cc:Work>
    </rdf:RDF>
  </metadata>
  <g
     transform="translate(-49.893006,-68.702341)"
     id="layer1">
    <path
       style="opacity:1;fill:#ffffff;fill-opacity:1;stroke:none;stroke-width:32;stroke-linecap:round;stroke-linejoin:round;stroke-miterlimit:4;stroke-dasharray:none;stroke-opacity:1"
       d="m 60.655658,68.702341 c -5.962605,0 -10.762652,4.80005 -10.762652,10.76265 v 48.022389 c 0,5.96261 4.800047,10.76266 10.762652,10.76266 h 91.867262 c 5.9626,0 10.76265,-4.80005 10.76265,-10.76266 V 79.464991 c 0,-5.9626 -4.80005,-10.76265 -10.76265,-10.76265 z m 12.275735,6.57273 a 0.80299168,0.80299168 0 0 1 0.573609,1.38234 c 0,0 -9.40821,9.22651 -9.40821,26.761669 -3e-6,17.53517 9.40821,26.76117 9.40821,26.76117 a 0.80337107,0.80337107 0 0 1 -1.12758,1.14463 c 0,0 -9.886736,-9.79123 -9.886736,-27.9058 0,-18.114549 9.886736,-27.904749 9.886736,-27.904749 a 0.80299168,0.80299168 0 0 1 0.553971,-0.23926 z m 67.315787,0 a 0.80299168,0.80299168 0 0 1 0.55345,0.23926 c 0,0 9.88674,9.7902 9.88674,27.904749 0,18.11457 -9.88674,27.9058 -9.88674,27.9058 a 0.80318912,0.80318912 0 1 1 -1.12706,-1.14463 c 0,0 9.40821,-9.226 9.40821,-26.76117 0,-17.535159 -9.40821,-26.761669 -9.40821,-26.761669 a 0.80299168,0.80299168 0 0 1 0.57361,-1.38234 z m -62.355884,4.92114 a 0.80299168,0.80299168 0 0 1 0.573609,1.3839 c 0,0 -7.671366,7.51304 -7.671366,21.838969 0,14.32593 7.671366,21.84053 7.671366,21.84053 a 0.80318949,0.80318949 0 1 1 -1.127061,1.14412 c 0,0 -8.149892,-8.07931 -8.149892,-22.98465 0,-14.905329 8.149892,-22.983609 8.149892,-22.983609 a 0.80299168,0.80299168 0 0 1 0.553452,-0.23926 z m 57.392874,0 a 0.80299168,0.80299168 0 0 1 0.003,0 0.80299168,0.80299168 0 0 1 0.55345,0.23926 c 0,0 8.14989,8.07828 8.14989,22.983609 0,14.90534 -8.14989,22.98465 -8.14989,22.98465 a 0.80319052,0.80319052 0 1 1 -1.12707,-1.14412 c 0,0 7.67136,-7.5146 7.67136,-21.84053 0,-14.325929 -7.67136,-21.838969 -7.67136,-21.838969 a 0.80299168,0.80299168 0 0 1 0.5705,-1.3839 z m -28.69488,2.98483 c 5.62306,0 10.31081,4.19283 11.097,9.60665 h 1.58181 c 2.2934,0 4.1398,1.84639 4.1398,4.139799 v 18.47071 c 0,2.29341 -1.8464,4.1398 -4.1398,4.1398 H 93.910476 c -2.293411,0 -4.139801,-1.84639 -4.139801,-4.1398 V 96.92749 c 0,-2.293409 1.84639,-4.139799 4.139801,-4.139799 h 1.581814 c 0.786175,-5.41382 5.47394,-9.60665 11.097,-9.60665 z m -23.622849,2.66134 a 0.80299168,0.80299168 0 0 1 0.572059,1.38234 c -3e-6,0 -5.677692,5.54961 -5.677692,16.194359 0,10.64476 5.677692,16.19592 5.677692,16.19592 a 0.80318721,0.80318721 0 1 1 -1.127065,1.14412 c 0,0 -6.156214,-6.11588 -6.156214,-17.34004 0,-11.224149 6.156214,-17.338989 6.156214,-17.338989 a 0.80299168,0.80299168 0 0 1 0.555006,-0.23771 z m 47.245689,0 a 0.80299168,0.80299168 0 0 1 0.55501,0.23771 c 0,0 6.15621,6.11484 6.15621,17.338989 0,11.22416 -6.15621,17.34004 -6.15621,17.34004 a 0.80318721,0.80318721 0 1 1 -1.12706,-1.14412 c 0,0 5.67769,-5.55116 5.67769,-16.19592 0,-10.644749 -5.67769,-16.194359 -5.67769,-16.194359 a 0.80299168,0.80299168 0 0 1 0.57205,-1.38234 z m -23.62284,1.54357 c -3.34229,0 -6.10693,2.29105 -6.826458,5.40174 h 13.652398 c -0.71953,-3.11069 -3.48365,-5.40174 -6.82594,-5.40174 z m 0,11.115601 a 4.1055412,4.1055412 0 0 0 -4.10569,4.105698 4.1055412,4.1055412 0 0 0 1.97714,3.50469 v 4.4819 c 0,0.96665 0.77796,1.74511 1.7446,1.74511 h 0.76791 c 0.96664,0 1.74511,-0.77846 1.74511,-1.74511 v -4.48035 a 4.1055412,4.1055412 0 0 0 1.97662,-3.50624 4.1055412,4.1055412 0 0 0 -4.10569,-4.105698 z"
       id="path1001" />
  </g>
</svg>
