<?xml version="1.0" encoding="UTF-8" standalone="no"?>
<svg
   xmlns:dc="http://purl.org/dc/elements/1.1/"
   xmlns:cc="http://creativecommons.org/ns#"
   xmlns:rdf="http://www.w3.org/1999/02/22-rdf-syntax-ns#"
   xmlns:svg="http://www.w3.org/2000/svg"
   xmlns="http://www.w3.org/2000/svg"
   id="svg8"
   version="1.1"
   viewBox="0 0 163.23389 103.15029"
   height="103.15029mm"
   width="163.23389mm">
  <defs
     id="defs2" />
  <metadata
     id="metadata5">
    <rdf:RDF>
      <cc:Work
         rdf:about="">
        <dc:format>image/svg+xml</dc:format>
        <dc:type
           rdf:resource="http://purl.org/dc/dcmitype/StillImage" />
        <dc:title></dc:title>
      </cc:Work>
    </rdf:RDF>
  </metadata>
  <g
     transform="translate(-29.860117,-67.190475)"
     id="layer1">
    <rect
       ry="10.762825"
       y="67.190475"
       x="29.860117"
       height="69.547623"
       width="113.39286"
       id="rect4518"
       style="opacity:1;fill:#0088aa;fill-opacity:1;stroke:none;stroke-width:32;stroke-linecap:round;stroke-linejoin:round;stroke-miterlimit:4;stroke-dasharray:none;stroke-opacity:1" />
    <rect
       transform="rotate(15)"
       style="opacity:1;fill:#80e5ff;fill-opacity:1;stroke:none;stroke-width:32;stroke-linecap:round;stroke-linejoin:round;stroke-miterlimit:4;stroke-dasharray:none;stroke-opacity:1"
       id="rect4520"
       width="113.39286"
       height="69.547623"
       x="102.77795"
       y="51.37785"
       ry="10.762825" />
    <g
       style="fill:none;stroke:#164450"
       transform="matrix(0.52543418,0.14078966,-0.14078966,0.52543418,57.262072,-6.9442336)"
       id="g4531">
      <path
         style="fill:none;stroke:#164450;stroke-width:4;stroke-linecap:round;stroke-linejoin:miter;stroke-opacity:1"
         d="m 79.364825,156.38268 c 0,0 -14.74107,14.52936 -14.74107,41.76637 0,27.23702 14.74107,41.76637 14.74107,41.76637"
         id="path4522" />
      <path
         id="path4524"
         d="m 66.723706,142.32168 c 0,0 -19.703777,19.42079 -19.703777,55.82737 0,36.40659 19.703777,55.82737 19.703777,55.82737"
         style="fill:none;stroke:#164450;stroke-width:4;stroke-linecap:round;stroke-linejoin:miter;stroke-opacity:1" />
      <path
         style="fill:none;stroke:#164450;stroke-width:4;stroke-linecap:round;stroke-linejoin:miter;stroke-opacity:1"
         d="m 54.369669,130.06337 c 0,0 -24.03024,23.68512 -24.03024,68.08568 0,44.40058 24.03024,68.08568 24.03024,68.08568"
         id="path4526" />
    </g>
  </g>
</svg>
